# xmcd CD database file
#
# Track frame offsets:
#	150
#	19810
#	27267
#	65425
#	83387
#	128117
#	154635
#	174180
#	242540
#	268917
#	286647
#	292515
#
# Disc length: 4429 seconds
#
# Revision: 0
# Processed by: cddbd v1.5.2PL0 Copyright (c) Steve Scherf et al.
# Submitted via: CDex 1.70beta2
#
DISCID=8b114b0c
DTITLE=Steuart Liebig - Quartetto Stig: Lingua Oscura
DYEAR=1995
DGENRE=Jazz
TTITLE0=Seed
TTITLE1=Plums And Apricots Falling From The Sky
TTITLE2=Nef
TTITLE3=Your Name Here
TTITLE4=Una Senal De Soledad
TTITLE5=Ten Pielke Duinegies For
TTITLE6=Ohne Name
TTITLE7=Terribilia Meditans
TTITLE8=Liquid Speedball
TTITLE9=A Rose Is Eros
TTITLE10=Exploded Sky
TTITLE11=Coda (In Memorium Jeff McCutchen)
EXTD=YEAR: 1995
EXTT0=
EXTT1=
EXTT2=
EXTT3=
EXTT4=
EXTT5=
EXTT6=
EXTT7=
EXTT8=
EXTT9=
EXTT10=
EXTT11=
PLAYORDER=
